<svg xmlns="http://www.w3.org/2000/svg" version="1.1" xmlns:xlink="http://www.w3.org/1999/xlink" width="100" height="100"><svg width="100" height="100" viewBox="0 0 100 100" fill="none" xmlns="http://www.w3.org/2000/svg">
  <!-- Top Face (Deep Dark 40% mix) -->
  <path d="M 10 25 L 50 5 L 90 25 L 50 45 Z" style="fill: color-mix(in srgb, #268BD2, black 40%);"></path>

  <!-- Left Face (Base Color) -->
  <path d="M 10 25 L 50 45 L 50 95 L 10 75 Z" fill="#268BD2"></path>
  
  <!-- Right Face (Shaded 30% Black mix) -->
  <path d="M 50 45 L 90 25 L 90 75 L 50 95 Z" style="fill: color-mix(in srgb, #268BD2, black 30%);"></path>
   
  <!-- Side Details (Dark Accents 50% mix) -->
  <path d="M 20 50 L 40 60 L 40 56 L 20 46 Z" style="fill: color-mix(in srgb, #268BD2, black 50%);"></path>
  <path d="M 20 65 L 40 75 L 40 71 L 20 61 Z" style="fill: color-mix(in srgb, #268BD2, black 50%);"></path>
  
  <!-- Speech Bubble (Solid White) -->
  <path d="M 58 55 L 82 43 L 82 58 L 76 61 L 72 68 L 68 65 L 58 70 Z" fill="#ffffff"></path>
  
  <!-- Bubble Dots -->
  <circle cx="65" cy="60" r="2" fill="#268BD2"></circle>
  <circle cx="70" cy="57.5" r="2" fill="#268BD2"></circle>
  <circle cx="75" cy="55" r="2" fill="#268BD2"></circle>
</svg><style>@media (prefers-color-scheme: light) { :root { filter: none; } }
@media (prefers-color-scheme: dark) { :root { filter: none; } }
</style></svg>